<svg xmlns="http://www.w3.org/2000/svg" width="49.431" height="44.5" viewBox="0 0 49.431 44.5">
  <path id="Icon_awesome-boxes" data-name="Icon awesome-boxes" d="M48.058,25.031H41.193v8.344l-2.746-1.851L35.7,33.375V25.031H28.835a1.386,1.386,0,0,0-1.373,1.391V43.109A1.386,1.386,0,0,0,28.835,44.5H48.058a1.386,1.386,0,0,0,1.373-1.391V26.422A1.386,1.386,0,0,0,48.058,25.031ZM15.1,19.469H34.327A1.386,1.386,0,0,0,35.7,18.078V1.391A1.386,1.386,0,0,0,34.327,0H27.462V8.344L24.716,6.492,21.969,8.344V0H15.1a1.386,1.386,0,0,0-1.373,1.391V18.078A1.386,1.386,0,0,0,15.1,19.469ZM20.6,25.031H13.731v8.344l-2.746-1.851L8.239,33.375V25.031H1.373A1.386,1.386,0,0,0,0,26.422V43.109A1.386,1.386,0,0,0,1.373,44.5H20.6a1.386,1.386,0,0,0,1.373-1.391V26.422A1.386,1.386,0,0,0,20.6,25.031Z" fill="#fff"/>
</svg>
