<svg xmlns="http://www.w3.org/2000/svg" width="52.779" height="51" viewBox="0 0 52.779 51">
  <path id="Icon_awesome-coins" data-name="Icon awesome-coins" d="M0,38.788v4.087C0,46.253,8.529,49,19.042,49s19.042-2.747,19.042-6.125V38.788c-4.1,2.785-11.584,4.087-19.042,4.087S4.1,41.573,0,38.788ZM31.737,12.25c10.513,0,19.042-2.747,19.042-6.125S42.25,0,31.737,0,12.695,2.747,12.695,6.125,21.224,12.25,31.737,12.25ZM0,28.749v4.938c0,3.378,8.529,6.125,19.042,6.125s19.042-2.747,19.042-6.125V28.749C33.988,32,26.49,33.688,19.042,33.688S4.1,32,0,28.749ZM41.258,29.8c5.683-1.062,9.521-3.034,9.521-5.3V20.413a24.917,24.917,0,0,1-9.521,3.3ZM19.042,15.313C8.529,15.313,0,18.739,0,22.969s8.529,7.656,19.042,7.656S38.084,27.2,38.084,22.969,29.555,15.313,19.042,15.313ZM40.792,20.7c5.951-1.034,9.987-3.062,9.987-5.388V11.226c-3.521,2.4-9.571,3.694-15.938,4C37.767,16.595,39.919,18.432,40.792,20.7Z" transform="translate(1 1)" fill="none" stroke="#fff" stroke-width="2"/>
</svg>
