<svg xmlns="http://www.w3.org/2000/svg" width="34.641" height="34" viewBox="0 0 34.641 34">
  <g id="Icon_feather-headphones" data-name="Icon feather-headphones" transform="translate(1.5 1.5)">
    <path id="Path_18" data-name="Path 18" d="M4.5,31V20.4a15.821,15.821,0,1,1,31.641,0V31" transform="translate(-4.5 -4.5)" fill="none" stroke="#fff" stroke-linecap="round" stroke-linejoin="round" stroke-width="3"/>
    <path id="Path_19" data-name="Path 19" d="M36.141,28.5a3.289,3.289,0,0,1-3.516,3H30.867a3.289,3.289,0,0,1-3.516-3V24a3.289,3.289,0,0,1,3.516-3h5.273ZM4.5,28.5a3.289,3.289,0,0,0,3.516,3H9.773a3.289,3.289,0,0,0,3.516-3V24a3.289,3.289,0,0,0-3.516-3H4.5Z" transform="translate(-4.5 -0.5)" fill="none" stroke="#fff" stroke-linecap="round" stroke-linejoin="round" stroke-width="3"/>
  </g>
</svg>
