<svg xmlns="http://www.w3.org/2000/svg" width="35.903" height="41.484" viewBox="0 0 35.903 41.484">
  <path id="Icon_awesome-wpforms" data-name="Icon awesome-wpforms" d="M35.9,6.249V39.735a3.716,3.716,0,0,1-3.462,4H3.462A3.729,3.729,0,0,1,0,39.725V6.249a3.717,3.717,0,0,1,3.462-4H32.449A3.715,3.715,0,0,1,35.9,6.249ZM32.914,39.725V6.249a.517.517,0,0,0-.465-.537H31.7l-8.84,6.906L17.952,8l-4.9,4.62L4.207,5.7H3.462A.517.517,0,0,0,3,6.24V39.725a.517.517,0,0,0,.465.537H32.449a.505.505,0,0,0,.465-.537ZM12.037,16.507v3.425H6.147V16.507Zm0,6.888v3.453H6.147V23.395Zm.89-13.637,4.328-4.046h-9.5l5.169,4.046Zm16.83,6.749v3.425H14.049V16.507Zm0,6.888v3.453H14.049V23.395ZM22.976,9.758l5.169-4.046H18.657ZM29.756,30.3v3.453H21.79V30.3h7.966Z" transform="translate(0 -2.25)" fill="#fff"/>
</svg>
